<svg width="71" height="71" viewBox="0 0 71 71" fill="none" xmlns="http://www.w3.org/2000/svg">
<path d="M8.875 6.65625H13.3125V8.875H8.875V6.65625Z" fill="black"/>
<path d="M8.875 11.0938H15.5312V13.3125H8.875V11.0938Z" fill="black"/>
<path d="M63.2344 22.1875H48.8125V12.2032C48.8125 11.9089 48.6956 11.6268 48.4876 11.4187C48.2795 11.2107 47.9973 11.0938 47.7031 11.0938H44.375V7.76567C44.375 7.47144 44.2581 7.18927 44.0501 6.98122C43.842 6.77317 43.5598 6.65629 43.2656 6.65629H35.4112L31.8612 2.59598C31.7561 2.47623 31.6263 2.38056 31.4808 2.31547C31.3353 2.25038 31.1775 2.21741 31.0181 2.21879H5.54688C5.25265 2.21879 4.97048 2.33567 4.76243 2.54372C4.55438 2.75177 4.4375 3.03394 4.4375 3.32817V41.0469C4.4375 41.3411 4.55438 41.6233 4.76243 41.8314C4.97048 42.0394 5.25265 42.1563 5.54688 42.1563H8.875V45.4844C8.875 45.7786 8.99188 46.0608 9.19993 46.2689C9.40798 46.4769 9.69015 46.5938 9.98438 46.5938H13.3125V49.9219C13.3125 50.2161 13.4294 50.4983 13.6374 50.7064C13.8455 50.9144 14.1277 51.0313 14.4219 51.0313H35.5V65.4532C35.5026 66.335 35.8541 67.18 36.4777 67.8036C37.1013 68.4272 37.9463 68.7787 38.8281 68.7813H63.2344C64.1162 68.7787 64.9612 68.4272 65.5848 67.8036C66.2084 67.18 66.5599 66.335 66.5625 65.4532V25.5157C66.5599 24.6338 66.2084 23.7888 65.5848 23.1652C64.9612 22.5417 64.1162 22.1902 63.2344 22.1875ZM44.375 13.3125H46.5938V22.1875H44.375V13.3125ZM42.1562 8.87504V22.1875H39.9375V12.2364C39.9348 11.9672 39.8365 11.7077 39.6602 11.5043L37.3527 8.87504H42.1562ZM32.1719 6.32348L36.3542 11.0938H32.1719V6.32348ZM35.5 48.8125H15.5312V46.5938H35.5V48.8125ZM35.5 44.375H11.0938V42.1563H35.5V44.375ZM35.5 25.5157V35.5H33.2812V16.6407C33.2812 16.3464 33.1644 16.0643 32.9563 15.8562C32.7483 15.6482 32.4661 15.5313 32.1719 15.5313H27.7344C27.4402 15.5313 27.158 15.6482 26.9499 15.8562C26.7419 16.0643 26.625 16.3464 26.625 16.6407V35.5H25.5156V21.0782C25.5156 20.7839 25.3987 20.5018 25.1907 20.2937C24.9826 20.0857 24.7005 19.9688 24.4062 19.9688H19.9688C19.6745 19.9688 19.3924 20.0857 19.1843 20.2937C18.9763 20.5018 18.8594 20.7839 18.8594 21.0782V35.5H17.75V28.8438C17.75 28.5496 17.6331 28.2674 17.4251 28.0593C17.217 27.8513 16.9348 27.7344 16.6406 27.7344H12.2031C11.9089 27.7344 11.6267 27.8513 11.4187 28.0593C11.2106 28.2674 11.0938 28.5496 11.0938 28.8438V35.5H8.875V37.7188H35.5V39.9375H6.65625V4.43754H29.9531V12.2032C29.9531 12.4974 30.07 12.7796 30.2781 12.9876C30.4861 13.1957 30.7683 13.3125 31.0625 13.3125H37.7188V22.3872C37.0723 22.6175 36.5124 23.0414 36.1154 23.6011C35.7184 24.1609 35.5035 24.8294 35.5 25.5157ZM31.0625 17.75V35.5H28.8438V17.75H31.0625ZM23.2969 22.1875V35.5H21.0781V22.1875H23.2969ZM15.5312 29.9532V35.5H13.3125V29.9532H15.5312ZM64.3438 65.4532C64.3438 65.7474 64.2269 66.0296 64.0188 66.2376C63.8108 66.4457 63.5286 66.5625 63.2344 66.5625H38.8281C38.5339 66.5625 38.2517 66.4457 38.0437 66.2376C37.8356 66.0296 37.7188 65.7474 37.7188 65.4532V57.6875H64.3438V65.4532ZM64.3438 55.4688H37.7188V28.8438H64.3438V55.4688ZM64.3438 26.625H37.7188V25.5157C37.7188 25.2214 37.8356 24.9393 38.0437 24.7312C38.2517 24.5232 38.5339 24.4063 38.8281 24.4063H63.2344C63.5286 24.4063 63.8108 24.5232 64.0188 24.7312C64.2269 24.9393 64.3438 25.2214 64.3438 25.5157V26.625Z" fill="black"/>
<path d="M51.0313 58.7969C50.373 58.7969 49.7296 58.9921 49.1822 59.3578C48.6349 59.7235 48.2084 60.2432 47.9565 60.8514C47.7046 61.4595 47.6387 62.1287 47.7671 62.7743C47.8955 63.4199 48.2125 64.0129 48.6779 64.4783C49.1434 64.9438 49.7364 65.2608 50.382 65.3892C51.0276 65.5176 51.6967 65.4517 52.3049 65.1998C52.913 64.9479 53.4328 64.5213 53.7985 63.974C54.1642 63.4267 54.3594 62.7832 54.3594 62.125C54.3594 61.2423 54.0087 60.3958 53.3846 59.7717C52.7604 59.1475 51.9139 58.7969 51.0313 58.7969ZM51.0313 63.2344C50.8118 63.2344 50.5974 63.1693 50.4149 63.0474C50.2325 62.9255 50.0903 62.7523 50.0063 62.5495C49.9224 62.3468 49.9004 62.1238 49.9432 61.9086C49.986 61.6934 50.0917 61.4957 50.2468 61.3406C50.402 61.1854 50.5996 61.0797 50.8148 61.0369C51.03 60.9941 51.2531 61.0161 51.4558 61.1001C51.6585 61.184 51.8318 61.3262 51.9537 61.5087C52.0756 61.6911 52.1406 61.9056 52.1406 62.125C52.1406 62.4192 52.0238 62.7014 51.8157 62.9095C51.6077 63.1175 51.3255 63.2344 51.0313 63.2344Z" fill="black"/>
<path d="M57.6875 42.1563H51.0313V35.5C51.0313 35.2058 50.9144 34.9236 50.7063 34.7156C50.4983 34.5075 50.2161 34.3906 49.9219 34.3906C48.1666 34.3906 46.4507 34.9111 44.9912 35.8863C43.5317 36.8615 42.3942 38.2476 41.7224 39.8693C41.0507 41.491 40.875 43.2755 41.2174 44.9971C41.5599 46.7186 42.4051 48.3 43.6463 49.5412C44.8875 50.7824 46.4689 51.6277 48.1905 51.9701C49.912 52.3125 51.6965 52.1368 53.3182 51.4651C54.9399 50.7933 56.326 49.6558 57.3012 48.1963C58.2764 46.7368 58.7969 45.0209 58.7969 43.2656C58.7969 42.9714 58.68 42.6892 58.472 42.4812C58.2639 42.2731 57.9817 42.1563 57.6875 42.1563ZM49.9219 49.9219C48.2518 49.9234 46.6422 49.2971 45.4124 48.1672C44.1826 47.0373 43.4225 45.4864 43.2829 43.8222C43.1432 42.158 43.6343 40.5021 44.6586 39.1831C45.6829 37.8641 47.1656 36.9783 48.8125 36.7015V43.2656C48.8125 43.5599 48.9294 43.842 49.1374 44.0501C49.3455 44.2581 49.6277 44.375 49.9219 44.375H56.4861C56.2218 45.9252 55.4181 47.3321 54.2169 48.3471C53.0157 49.3621 51.4945 49.9199 49.9219 49.9219Z" fill="black"/>
<path d="M53.25 31.0625C52.9558 31.0625 52.6736 31.1794 52.4656 31.3874C52.2575 31.5955 52.1406 31.8777 52.1406 32.1719V39.9375C52.1406 40.2317 52.2575 40.5139 52.4656 40.7219C52.6736 40.93 52.9558 41.0469 53.25 41.0469H61.0156C61.3098 41.0469 61.592 40.93 61.8001 40.7219C62.0081 40.5139 62.125 40.2317 62.125 39.9375C62.1224 37.5845 61.1865 35.3287 59.5227 33.6648C57.8588 32.001 55.603 31.0651 53.25 31.0625ZM54.3594 38.8281V33.3733C55.7213 33.6062 56.9775 34.2559 57.9545 35.233C58.9316 36.21 59.5813 37.4662 59.8142 38.8281H54.3594Z" fill="black"/>
</svg>
