<svg width="69" height="69" viewBox="0 0 69 69" fill="none" xmlns="http://www.w3.org/2000/svg">
<g clip-path="url(#clip0)">
<path d="M41.3999 54.0498H12.6499C11.7897 54.0589 11.0042 54.54 10.6052 55.3022L8.03382 60.959C7.62705 61.6711 7.63022 62.5459 8.04215 63.2551C8.45407 63.9642 9.21242 64.4004 10.0325 64.3998H41.3999C42.6702 64.3998 43.6999 63.3701 43.6999 62.0998V56.3498C43.6999 55.0795 42.6702 54.0498 41.3999 54.0498ZM10.0797 62.0527L12.6499 56.3498H41.3999V62.0527H10.0797Z" fill="black"/>
<path d="M46 56.3498V62.0998C46 63.3701 47.0297 64.3998 48.3 64.3998H58.9674C59.7682 64.3996 60.5113 63.9829 60.9291 63.2997C61.3469 62.6164 61.3792 61.7651 61.0144 61.0522L58.3464 55.209C57.9371 54.4924 57.1752 54.0501 56.35 54.0498H48.3C47.0297 54.0498 46 55.0795 46 56.3498ZM58.9743 62.0998H48.3V56.3498L56.3017 56.2555L58.9743 62.0998Z" fill="black"/>
<path d="M1.15028 26.45C0.725881 26.4501 0.336021 26.6839 0.136091 27.0582C-0.0638385 27.4326 -0.0413356 27.8866 0.194631 28.2394C1.99561 30.9293 4.84824 32.7342 8.05028 33.2097V40.25C8.05373 42.9814 9.9749 45.3348 12.6503 45.885V49.45H11.1645C8.84285 49.4331 6.74455 50.8306 5.86528 52.9794L0.248681 64.2689C-0.176292 65.3315 -0.0466551 66.5357 0.594749 67.4835C1.23615 68.4314 2.30583 68.9994 3.45028 69H65.5503C66.711 68.9993 67.7936 68.415 68.4312 67.4451C69.0688 66.4752 69.1759 65.2496 68.7162 64.1838L63.1778 53.0656C62.3108 50.8761 60.191 49.4412 57.8361 49.45H56.3503V45.885C59.0257 45.3348 60.9468 42.9814 60.9503 40.25V33.2097C64.1526 32.7349 67.0055 30.9298 68.8059 28.2394C69.0419 27.8866 69.0644 27.4326 68.8645 27.0582C68.6645 26.6839 68.2747 26.4501 67.8503 26.45H60.9503V17.25H67.8503C68.2747 17.2499 68.6645 17.0161 68.8645 16.6418C69.0644 16.2674 69.0419 15.8134 68.8059 15.4606C67.0055 12.7702 64.1526 10.9651 60.9503 10.4903V5.75C60.9465 2.57594 58.3743 0.00380204 55.2003 0H13.8003C10.6262 0.00380204 8.05408 2.57594 8.05028 5.75V10.4903C4.84798 10.9651 1.9951 12.7702 0.194631 15.4606C-0.0413356 15.8134 -0.0638385 16.2674 0.136091 16.6418C0.336021 17.0161 0.725881 17.2499 1.15028 17.25H8.05028V26.45H1.15028ZM61.0768 54.004L66.6163 65.1234C66.7577 65.4773 66.7146 65.8784 66.5011 66.1941C66.2876 66.5099 65.9315 66.6994 65.5503 66.7H3.45028C3.0841 66.6985 2.74011 66.5242 2.52228 66.2299C2.30446 65.9355 2.23837 65.5556 2.34398 65.205L7.95943 53.9154C8.48046 52.6029 9.75234 51.7436 11.1645 51.75H57.8361C59.2797 51.755 60.5698 52.6523 61.0768 54.004ZM14.9503 49.45V46H17.2503C17.2503 46.6351 17.7652 47.15 18.4003 47.15C19.0354 47.15 19.5503 46.6351 19.5503 46H21.8503C21.8503 46.6351 22.3652 47.15 23.0003 47.15C23.6354 47.15 24.1503 46.6351 24.1503 46H26.4503C26.4503 46.6351 26.9652 47.15 27.6003 47.15C28.2354 47.15 28.7503 46.6351 28.7503 46H31.0503C31.0503 46.6351 31.5652 47.15 32.2003 47.15C32.8354 47.15 33.3503 46.6351 33.3503 46H35.6503C35.6503 46.6351 36.1652 47.15 36.8003 47.15C37.4354 47.15 37.9503 46.6351 37.9503 46H40.2503C40.2503 46.6351 40.7652 47.15 41.4003 47.15C42.0354 47.15 42.5503 46.6351 42.5503 46H44.8503C44.8503 46.6351 45.3652 47.15 46.0003 47.15C46.6354 47.15 47.1503 46.6351 47.1503 46H49.4503C49.4503 46.6351 49.9652 47.15 50.6003 47.15C51.2354 47.15 51.7503 46.6351 51.7503 46H54.0503V49.45H14.9503ZM55.2003 43.7H13.8003C11.8949 43.7 10.3503 42.1554 10.3503 40.25V33.3201C11.127 33.2802 11.8976 33.1615 12.6503 32.9659V35.65C12.6503 36.9203 13.68 37.95 14.9503 37.95H54.0503C55.3205 37.95 56.3503 36.9203 56.3503 35.65V32.9659C57.103 33.1616 57.8736 33.2803 58.6503 33.3201V40.25C58.6503 42.1554 57.1057 43.7 55.2003 43.7ZM18.9327 28.75H50.0678C51.1235 30.1536 52.4856 31.2978 54.0503 32.0953V35.65H14.9503V32.0953C16.515 31.2978 17.8771 30.1536 18.9327 28.75ZM54.0503 11.6046C52.4856 12.4022 51.1235 13.5464 50.0678 14.95H18.9327C17.8771 13.5464 16.515 12.4022 14.9503 11.6046V6.9H54.0503V11.6046ZM48.712 17.25C47.4229 20.1812 47.4229 23.5188 48.712 26.45H20.2886C21.5777 23.5188 21.5777 20.1812 20.2886 17.25H48.712ZM55.9869 21.85L58.6503 17.411V26.289L55.9869 21.85ZM58.096 14.95C57.6919 14.9497 57.3174 15.1614 57.1093 15.5077L53.6593 21.2577C53.4403 21.6222 53.4403 22.0778 53.6593 22.4422L57.1093 28.1922C57.3174 28.5386 57.6919 28.7503 58.096 28.75H65.3306C61.632 32.0119 56.0191 31.7773 52.6056 28.2181C49.192 24.6589 49.192 19.0411 52.6056 15.4819C56.0191 11.9227 61.632 11.6881 65.3306 14.95H58.096ZM13.8003 2.3H55.2003C57.1057 2.3 58.6503 3.84462 58.6503 5.75V10.3799C57.8736 10.4197 57.103 10.5384 56.3503 10.7341V6.9C56.3503 5.62975 55.3205 4.6 54.0503 4.6H14.9503C13.68 4.6 12.6503 5.62975 12.6503 6.9V10.7341C11.8976 10.5385 11.127 10.4198 10.3503 10.3799V5.75C10.3503 3.84462 11.8949 2.3 13.8003 2.3ZM13.3667 13.3906C16.7159 14.818 18.9083 18.086 18.9588 21.7263C19.0094 25.3666 16.9085 28.6942 13.6003 30.214C10.2921 31.7338 6.39881 31.1598 3.66993 28.75H10.9046C11.3086 28.7503 11.6832 28.5386 11.8913 28.1922L15.3413 22.4422C15.5603 22.0778 15.5603 21.6222 15.3413 21.2577L11.8913 15.5077C11.6832 15.1614 11.3086 14.9497 10.9046 14.95H3.66993C6.32944 12.6004 10.1047 11.9933 13.3667 13.3906ZM13.0137 21.85L10.3503 26.289V17.411L13.0137 21.85Z" fill="black"/>
<path d="M25.2999 23.0002H31.0499C31.685 23.0002 32.1999 22.4853 32.1999 21.8502C32.1999 21.2151 31.685 20.7002 31.0499 20.7002H25.2999C24.6648 20.7002 24.1499 21.2151 24.1499 21.8502C24.1499 22.4853 24.6648 23.0002 25.2999 23.0002Z" fill="black"/>
<path d="M37.9499 23.0002H43.6999C44.3351 23.0002 44.8499 22.4853 44.8499 21.8502C44.8499 21.2151 44.3351 20.7002 43.6999 20.7002H37.9499C37.3148 20.7002 36.7999 21.2151 36.7999 21.8502C36.7999 22.4853 37.3148 23.0002 37.9499 23.0002Z" fill="black"/>
</g>
<defs>
<clipPath id="clip0">
<rect width="69" height="69" fill="white"/>
</clipPath>
</defs>
</svg>
