<svg id="Capa_1" enable-background="new 0 0 512 512" height="512" viewBox="0 0 512 512" width="512" xmlns="http://www.w3.org/2000/svg"><g><path d="m441.87 79.22c4.143 0 7.5-3.358 7.5-7.5v-54.12c0-9.705-7.896-17.6-17.601-17.6h-20.199c-9.71 0-17.61 7.896-17.61 17.6v45.03h-49.646v-6.642c0-13.047-10.615-23.663-23.663-23.663-6.245 0-11.929 2.436-16.162 6.403-4.233-3.967-9.917-6.403-16.163-6.403-6.245 0-11.929 2.436-16.162 6.403-4.233-3.967-9.918-6.403-16.163-6.403s-11.93 2.436-16.163 6.403c-4.233-3.967-9.917-6.403-16.162-6.403s-11.93 2.436-16.163 6.403c-4.233-3.967-9.917-6.403-16.162-6.403-13.048 0-23.663 10.615-23.663 23.663v6.642h-49.648v-45.03c0-9.705-7.9-17.6-17.61-17.6h-20.2c-9.705 0-17.6 7.896-17.6 17.6v382.08c0 4.142 3.357 7.5 7.5 7.5s7.5-3.358 7.5-7.5v-382.08c0-1.434 1.167-2.6 2.601-2.6h20.199c1.439 0 2.61 1.167 2.61 2.6v476.8c0 1.434-1.171 2.6-2.61 2.6h-20.2c-1.434 0-2.601-1.167-2.601-2.6v-59.72c0-4.142-3.357-7.5-7.5-7.5s-7.5 3.358-7.5 7.5v59.72c0 9.705 7.896 17.6 17.601 17.6h20.199c9.71 0 17.61-7.896 17.61-17.6v-45.03h114.297v6.642c0 13.047 10.615 23.663 23.663 23.663 6.245 0 11.93-2.436 16.163-6.403 4.233 3.967 9.917 6.403 16.162 6.403 6.246 0 11.93-2.436 16.163-6.403 4.233 3.967 9.917 6.403 16.162 6.403 6.246 0 11.93-2.436 16.163-6.403 4.233 3.967 9.917 6.403 16.162 6.403 6.246 0 11.93-2.436 16.163-6.403 4.233 3.967 9.917 6.403 16.162 6.403 3.056 0 5.975-.589 8.659-1.648v16.373c0 9.705 7.9 17.6 17.61 17.6h20.199c9.705 0 17.601-7.896 17.601-17.6v-387.68c0-4.142-3.357-7.5-7.5-7.5s-7.5 3.358-7.5 7.5v387.68c0 1.434-1.167 2.6-2.601 2.6h-20.197c-1.439 0-2.61-1.167-2.61-2.6v-476.8c0-1.434 1.171-2.6 2.61-2.6h20.199c1.434 0 2.601 1.167 2.601 2.6v54.12c0 4.142 3.358 7.5 7.5 7.5zm-47.91 262.215h-49.646v-6.643c0-13.047-10.615-23.663-23.663-23.663-6.245 0-11.929 2.436-16.162 6.403-4.233-3.967-9.917-6.403-16.163-6.403-6.245 0-11.929 2.436-16.162 6.403-4.233-3.967-9.918-6.403-16.163-6.403s-11.93 2.436-16.163 6.403c-4.233-3.967-9.917-6.403-16.162-6.403s-11.93 2.436-16.163 6.403c-4.233-3.967-9.917-6.403-16.162-6.403-13.048 0-23.663 10.615-23.663 23.663v6.643h-49.648v-49.279c2.684 1.06 5.603 1.648 8.659 1.648 6.245 0 11.929-2.436 16.162-6.403 4.233 3.967 9.918 6.403 16.163 6.403s11.929-2.436 16.162-6.403c4.233 3.967 9.918 6.403 16.163 6.403 13.047 0 23.662-10.615 23.662-23.663v-6.641h114.302v6.642c0 13.047 10.615 23.663 23.662 23.663 6.246 0 11.93-2.436 16.163-6.403 4.233 3.967 9.917 6.403 16.162 6.403 3.056 0 5.975-.589 8.659-1.648v49.278zm-81.972-6.643c0-4.776 3.886-8.663 8.662-8.663s8.663 3.886 8.663 8.663v28.285c0 4.776-3.887 8.663-8.663 8.663s-8.662-3.886-8.662-8.663zm-32.325 0c0-4.776 3.886-8.663 8.662-8.663s8.663 3.886 8.663 8.663v28.285c0 4.776-3.887 8.663-8.663 8.663s-8.662-3.886-8.662-8.663zm-32.326 0c0-4.776 3.887-8.663 8.663-8.663s8.663 3.886 8.663 8.663v28.285c0 4.776-3.887 8.663-8.663 8.663s-8.663-3.886-8.663-8.663zm-32.325 0c0-4.776 3.887-8.663 8.663-8.663s8.662 3.886 8.662 8.663v28.285c0 4.776-3.886 8.663-8.662 8.663s-8.663-3.886-8.663-8.663zm-32.325 0c0-4.776 3.887-8.663 8.663-8.663s8.662 3.886 8.662 8.663v28.285c0 4.776-3.886 8.663-8.662 8.663s-8.663-3.886-8.663-8.663zm-47.326-64.65c0 4.776-3.886 8.663-8.662 8.663-4.75 0-8.617-3.845-8.659-8.585v-28.438c.042-4.74 3.909-8.585 8.659-8.585 4.776 0 8.662 3.886 8.662 8.663zm32.326 0c0 4.776-3.886 8.663-8.662 8.663s-8.663-3.886-8.663-8.663v-28.284c0-4.776 3.887-8.663 8.663-8.663s8.662 3.886 8.662 8.663zm32.325 0c0 4.776-3.886 8.663-8.662 8.663s-8.663-3.886-8.663-8.663v-28.284c0-4.776 3.887-8.663 8.663-8.663s8.662 3.886 8.662 8.663zm161.627 0c0 4.776-3.887 8.663-8.663 8.663s-8.662-3.886-8.662-8.663v-28.284c0-4.776 3.886-8.663 8.662-8.663s8.663 3.886 8.663 8.663zm32.321.077c-.042 4.74-3.909 8.585-8.659 8.585-4.776 0-8.662-3.886-8.662-8.663v-28.284c0-4.776 3.886-8.663 8.662-8.663 4.75 0 8.617 3.845 8.659 8.585zm-8.659-52.024c-6.245 0-11.929 2.436-16.162 6.403-4.233-3.967-9.917-6.403-16.163-6.403-13.047 0-23.662 10.615-23.662 23.663v6.642h-114.302v-6.642c0-13.047-10.615-23.663-23.662-23.663-6.245 0-11.93 2.436-16.163 6.403-4.233-3.967-9.917-6.403-16.162-6.403s-11.93 2.436-16.163 6.403c-4.233-3.967-9.917-6.403-16.162-6.403-3.056 0-5.975.589-8.659 1.648v-49.279h81.972v6.643c0 13.047 10.615 23.663 23.663 23.663 13.047 0 23.662-10.615 23.662-23.663v-6.643h17.326v6.643c0 13.047 10.615 23.663 23.662 23.663 6.246 0 11.93-2.436 16.163-6.403 4.233 3.967 9.917 6.403 16.162 6.403 6.246 0 11.93-2.436 16.163-6.403 4.233 3.967 9.917 6.403 16.162 6.403 6.246 0 11.93-2.436 16.163-6.403 4.233 3.967 9.917 6.403 16.162 6.403 3.056 0 5.975-.589 8.659-1.648v20.622c-2.684-1.06-5.603-1.649-8.659-1.649zm-152.964-40.987c0 4.776-3.886 8.663-8.662 8.663s-8.663-3.886-8.663-8.663v-28.285c0-4.776 3.887-8.663 8.663-8.663s8.662 3.886 8.662 8.663zm64.651 0c0 4.776-3.887 8.663-8.663 8.663s-8.662-3.886-8.662-8.663v-28.285c0-4.776 3.886-8.663 8.662-8.663s8.663 3.886 8.663 8.663zm32.325 0c0 4.776-3.887 8.663-8.663 8.663s-8.662-3.886-8.662-8.663v-28.285c0-4.776 3.886-8.663 8.662-8.663s8.663 3.886 8.663 8.663zm32.326 0c0 4.776-3.887 8.663-8.663 8.663s-8.662-3.886-8.662-8.663v-28.285c0-4.776 3.886-8.663 8.662-8.663s8.663 3.886 8.663 8.663zm32.321.077c-.042 4.74-3.909 8.585-8.659 8.585-4.776 0-8.662-3.886-8.662-8.663v-28.285c0-4.776 3.886-8.663 8.662-8.663 4.75 0 8.617 3.845 8.659 8.585zm-73.31-129.96c4.776 0 8.663 3.886 8.663 8.663v28.285c0 4.776-3.887 8.663-8.663 8.663s-8.662-3.886-8.662-8.663v-28.285c0-4.777 3.886-8.663 8.662-8.663zm-32.325 0c4.776 0 8.663 3.886 8.663 8.663v28.285c0 4.776-3.887 8.663-8.663 8.663s-8.662-3.886-8.662-8.663v-28.285c0-4.777 3.886-8.663 8.662-8.663zm-32.325 0c4.776 0 8.663 3.886 8.663 8.663v28.285c0 4.776-3.887 8.663-8.663 8.663s-8.663-3.886-8.663-8.663v-28.285c0-4.777 3.887-8.663 8.663-8.663zm-32.325 0c4.776 0 8.662 3.886 8.662 8.663v28.285c0 4.776-3.886 8.663-8.662 8.663s-8.663-3.886-8.663-8.663v-28.285c0-4.777 3.886-8.663 8.663-8.663zm-40.988 8.663c0-4.776 3.887-8.663 8.663-8.663s8.662 3.886 8.662 8.663v28.285c0 4.776-3.886 8.663-8.662 8.663s-8.663-3.886-8.663-8.663zm-15 21.642v6.643c0 13.047 10.615 23.663 23.663 23.663 6.245 0 11.929-2.436 16.162-6.403 4.233 3.967 9.918 6.403 16.163 6.403s11.929-2.436 16.162-6.403c4.233 3.967 9.918 6.403 16.163 6.403s11.93-2.436 16.163-6.403c4.233 3.967 9.917 6.403 16.162 6.403 6.246 0 11.93-2.436 16.163-6.403 4.233 3.967 9.917 6.403 16.162 6.403 13.048 0 23.663-10.615 23.663-23.663v-6.643h49.646v49.279c-2.684-1.06-5.603-1.648-8.659-1.648-6.245 0-11.929 2.436-16.162 6.403-4.233-3.967-9.917-6.403-16.163-6.403-6.245 0-11.929 2.436-16.162 6.403-4.233-3.967-9.917-6.403-16.163-6.403-6.245 0-11.929 2.436-16.162 6.403-4.233-3.967-9.917-6.403-16.163-6.403-13.047 0-23.662 10.615-23.662 23.663v6.642h-17.326v-6.642c0-13.047-10.615-23.663-23.662-23.663-13.048 0-23.663 10.615-23.663 23.663v6.642h-81.972v-77.936zm-49.647 356.74v-77.935h49.646v6.642c0 13.047 10.615 23.663 23.663 23.663 6.245 0 11.929-2.436 16.162-6.403 4.233 3.967 9.918 6.403 16.163 6.403s11.929-2.436 16.162-6.403c4.233 3.967 9.918 6.403 16.163 6.403s11.93-2.436 16.163-6.403c4.233 3.967 9.917 6.403 16.162 6.403 6.246 0 11.93-2.436 16.163-6.403 4.233 3.967 9.917 6.403 16.162 6.403 13.048 0 23.663-10.615 23.663-23.663v-6.642h49.646v49.278c-2.684-1.06-5.603-1.648-8.659-1.648-6.245 0-11.929 2.436-16.162 6.403-4.233-3.967-9.917-6.403-16.163-6.403-6.245 0-11.929 2.436-16.162 6.403-4.233-3.967-9.917-6.403-16.163-6.403-6.245 0-11.929 2.436-16.162 6.403-4.233-3.967-9.917-6.403-16.163-6.403-6.245 0-11.929 2.436-16.162 6.403-4.233-3.967-9.918-6.403-16.163-6.403-13.048 0-23.663 10.615-23.663 23.663v6.643h-114.296zm137.96 30.305c-4.776 0-8.663-3.886-8.663-8.663v-28.285c0-4.776 3.887-8.663 8.663-8.663s8.663 3.886 8.663 8.663v28.285c0 4.777-3.887 8.663-8.663 8.663zm32.325 0c-4.776 0-8.662-3.886-8.662-8.663v-28.285c0-4.776 3.886-8.663 8.662-8.663s8.663 3.886 8.663 8.663v28.285c0 4.777-3.886 8.663-8.663 8.663zm32.325 0c-4.776 0-8.662-3.886-8.662-8.663v-28.285c0-4.776 3.886-8.663 8.662-8.663s8.663 3.886 8.663 8.663v28.285c0 4.777-3.886 8.663-8.663 8.663zm32.326 0c-4.776 0-8.662-3.886-8.662-8.663v-28.285c0-4.776 3.886-8.663 8.662-8.663s8.663 3.886 8.663 8.663v28.285c0 4.777-3.887 8.663-8.663 8.663zm32.325 0c-4.776 0-8.662-3.886-8.662-8.663v-28.285c0-4.776 3.886-8.663 8.662-8.663 4.75 0 8.617 3.845 8.659 8.585v28.439c-.042 4.742-3.909 8.587-8.659 8.587z"/></g></svg>