<svg width="25" height="24" viewBox="0 0 25 24" fill="none" xmlns="http://www.w3.org/2000/svg">
<g clip-path="url(#clip0)">
<path d="M23.6129 10.8509C24.0822 10.3936 24.2479 9.72237 24.0454 9.09844C23.8426 8.47451 23.3141 8.02913 22.6649 7.93461L16.8925 7.09586C16.6466 7.06006 16.4342 6.90587 16.3244 6.68293L13.7437 1.45284C13.454 0.86519 12.8658 0.5 12.2104 0.5C11.5555 0.5 10.9673 0.86519 10.6776 1.45284L8.09642 6.68341C7.98662 6.90634 7.77371 7.06054 7.52787 7.09634L1.75547 7.93508C1.10672 8.02913 0.577796 8.47499 0.374912 9.09892C0.172506 9.72284 0.338155 10.394 0.807412 10.8514L4.98395 14.9224C5.16201 15.0962 5.24364 15.3463 5.20163 15.5907L4.21633 21.3392C4.12897 21.8453 4.26168 22.3374 4.58916 22.7255C5.09804 23.3304 5.98643 23.5146 6.69676 23.1413L11.8591 20.427C12.0748 20.3138 12.3465 20.3148 12.5618 20.427L17.7246 23.1413C17.9757 23.2736 18.2435 23.3404 18.5199 23.3404C19.0244 23.3404 19.5028 23.116 19.8317 22.7255C20.1596 22.3374 20.2919 21.8443 20.2045 21.3392L19.2187 15.5907C19.1767 15.3458 19.2584 15.0962 19.4364 14.9224L23.6129 10.8509Z" fill="#BDC7D0"/>
</g>
<defs>
<clipPath id="clip0">
<rect width="23.84" height="23.84" fill="white" transform="translate(0.290039)"/>
</clipPath>
</defs>
</svg>
