<svg width="25" height="24" viewBox="0 0 25 24" fill="none" xmlns="http://www.w3.org/2000/svg">
<g clip-path="url(#clip0)">
<path d="M23.9025 10.8514C24.3718 10.394 24.5374 9.72284 24.335 9.09892C24.1321 8.47499 23.6037 8.0296 22.9544 7.93508L17.1821 7.09634C16.9362 7.06054 16.7238 6.90634 16.614 6.68341L14.0333 1.45284C13.7435 0.86519 13.1554 0.5 12.5 0.5C11.845 0.5 11.2569 0.86519 10.9671 1.45284L8.38598 6.68341C8.27618 6.90634 8.06328 7.06054 7.81743 7.09634L2.04504 7.93556C1.39629 8.0296 0.867835 8.47499 0.664951 9.09892C0.462545 9.72284 0.628194 10.394 1.09745 10.8514L5.27399 14.9224C5.45205 15.0962 5.53368 15.3463 5.49167 15.5907L4.50589 21.3397C4.39514 21.9856 4.65531 22.6258 5.18567 23.0115C5.71556 23.3977 6.40536 23.4478 6.98632 23.1418L12.1486 20.4275C12.3687 20.3119 12.6313 20.3119 12.8513 20.4275L18.0141 23.1418C18.2662 23.2745 18.5392 23.3399 18.8108 23.3399C19.1636 23.3399 19.515 23.2296 19.8148 23.0115C20.3451 22.6258 20.6053 21.9856 20.4945 21.3397L19.5083 15.5912C19.4663 15.3463 19.5479 15.0966 19.726 14.9229L23.9025 10.8514ZM18.5679 15.7525L19.5536 21.5011C19.6033 21.7904 19.4911 22.0668 19.2534 22.2396C19.0152 22.4119 18.7187 22.4329 18.4585 22.2973L13.2958 19.5825C13.047 19.4522 12.773 19.3863 12.5 19.3863C12.2269 19.3863 11.9534 19.4522 11.7042 19.583L6.54237 22.2973C6.28124 22.4329 5.98479 22.4119 5.74706 22.2396C5.50933 22.0668 5.39763 21.7908 5.44679 21.5011L6.43257 15.7525C6.52757 15.1978 6.34378 14.6317 5.94088 14.2393L1.76386 10.1678C1.55334 9.96248 1.48174 9.6732 1.57291 9.39393C1.66362 9.11419 1.89132 8.92229 2.18204 8.8798L7.95396 8.04106C8.51105 7.96038 8.99272 7.61095 9.24143 7.10589L11.8226 1.87531C11.9524 1.6118 12.2059 1.45475 12.4995 1.45475C12.7936 1.45475 13.0466 1.6118 13.1769 1.87531L15.758 7.10589C16.0068 7.61095 16.488 7.96038 17.045 8.04106L22.8174 8.8798C23.1082 8.92229 23.3359 9.11419 23.4266 9.39393C23.5173 9.6732 23.4461 9.96248 23.2356 10.1678L19.0591 14.2388C18.6562 14.6317 18.4724 15.1974 18.5679 15.7525Z" fill="#BDC7D0"/>
</g>
<defs>
<clipPath id="clip0">
<rect width="23.84" height="23.84" fill="white" transform="translate(0.580078)"/>
</clipPath>
</defs>
</svg>
