<svg width="153" height="153" viewBox="0 0 153 153" fill="none" xmlns="http://www.w3.org/2000/svg">
<rect width="10.2" height="10.2" fill="#D6DBDD"/>
<rect x="81.6" width="10.2" height="10.2" fill="#D6DBDD"/>
<rect y="81.5996" width="10.2" height="10.2" fill="#D6DBDD"/>
<rect x="81.6" y="81.5996" width="10.2" height="10.2" fill="#D6DBDD"/>
<rect x="40.8" width="10.2" height="10.2" fill="#D6DBDD"/>
<rect x="122.4" width="10.2" height="10.2" fill="#D6DBDD"/>
<rect x="40.8" y="81.5996" width="10.2" height="10.2" fill="#D6DBDD"/>
<rect x="122.4" y="81.5996" width="10.2" height="10.2" fill="#D6DBDD"/>
<rect x="20.4" width="10.2" height="10.2" fill="#D6DBDD"/>
<rect x="102" width="10.2" height="10.2" fill="#D6DBDD"/>
<rect x="20.4" y="81.5996" width="10.2" height="10.2" fill="#D6DBDD"/>
<rect x="102" y="81.5996" width="10.2" height="10.2" fill="#D6DBDD"/>
<rect x="61.2" width="10.2" height="10.2" fill="#D6DBDD"/>
<rect x="142.8" width="10.2" height="10.2" fill="#D6DBDD"/>
<rect x="61.2" y="81.5996" width="10.2" height="10.2" fill="#D6DBDD"/>
<rect x="142.8" y="81.5996" width="10.2" height="10.2" fill="#D6DBDD"/>
<rect y="20.4004" width="10.2" height="10.2" fill="#D6DBDD"/>
<rect x="81.6" y="20.4004" width="10.2" height="10.2" fill="#D6DBDD"/>
<rect y="101.999" width="10.2" height="10.2" fill="#D6DBDD"/>
<rect x="81.6" y="101.999" width="10.2" height="10.2" fill="#D6DBDD"/>
<rect x="40.8" y="20.4004" width="10.2" height="10.2" fill="#D6DBDD"/>
<rect x="122.4" y="20.4004" width="10.2" height="10.2" fill="#D6DBDD"/>
<rect x="40.8" y="101.999" width="10.2" height="10.2" fill="#D6DBDD"/>
<rect x="122.4" y="101.999" width="10.2" height="10.2" fill="#D6DBDD"/>
<rect x="20.4" y="20.4004" width="10.2" height="10.2" fill="#D6DBDD"/>
<rect x="102" y="20.4004" width="10.2" height="10.2" fill="#D6DBDD"/>
<rect x="20.4" y="101.999" width="10.2" height="10.2" fill="#D6DBDD"/>
<rect x="102" y="101.999" width="10.2" height="10.2" fill="#D6DBDD"/>
<rect x="61.2" y="20.4004" width="10.2" height="10.2" fill="#D6DBDD"/>
<rect x="142.8" y="20.4004" width="10.2" height="10.2" fill="#D6DBDD"/>
<rect x="61.2" y="101.999" width="10.2" height="10.2" fill="#D6DBDD"/>
<rect x="142.8" y="101.999" width="10.2" height="10.2" fill="#D6DBDD"/>
<rect y="40.7998" width="10.2" height="10.2" fill="#D6DBDD"/>
<rect x="81.6" y="40.7998" width="10.2" height="10.2" fill="#D6DBDD"/>
<rect y="122.399" width="10.2" height="10.2" fill="#D6DBDD"/>
<rect x="81.6" y="122.399" width="10.2" height="10.2" fill="#D6DBDD"/>
<rect x="40.8" y="40.7998" width="10.2" height="10.2" fill="#D6DBDD"/>
<rect x="122.4" y="40.7998" width="10.2" height="10.2" fill="#D6DBDD"/>
<rect x="40.8" y="122.399" width="10.2" height="10.2" fill="#D6DBDD"/>
<rect x="122.4" y="122.399" width="10.2" height="10.2" fill="#D6DBDD"/>
<rect x="20.4" y="40.7998" width="10.2" height="10.2" fill="#D6DBDD"/>
<rect x="102" y="40.7998" width="10.2" height="10.2" fill="#D6DBDD"/>
<rect x="20.4" y="122.399" width="10.2" height="10.2" fill="#D6DBDD"/>
<rect x="102" y="122.399" width="10.2" height="10.2" fill="#D6DBDD"/>
<rect x="61.2" y="40.7998" width="10.2" height="10.2" fill="#D6DBDD"/>
<rect x="142.8" y="40.7998" width="10.2" height="10.2" fill="#D6DBDD"/>
<rect x="61.2" y="122.399" width="10.2" height="10.2" fill="#D6DBDD"/>
<rect x="142.8" y="122.399" width="10.2" height="10.2" fill="#D6DBDD"/>
<rect y="61.2002" width="10.2" height="10.2" fill="#D6DBDD"/>
<rect x="81.6" y="61.2002" width="10.2" height="10.2" fill="#D6DBDD"/>
<rect y="142.8" width="10.2" height="10.2" fill="#D6DBDD"/>
<rect x="81.6" y="142.8" width="10.2" height="10.2" fill="#D6DBDD"/>
<rect x="40.8" y="61.2002" width="10.2" height="10.2" fill="#D6DBDD"/>
<rect x="122.4" y="61.2002" width="10.2" height="10.2" fill="#D6DBDD"/>
<rect x="40.8" y="142.8" width="10.2" height="10.2" fill="#D6DBDD"/>
<rect x="122.4" y="142.8" width="10.2" height="10.2" fill="#D6DBDD"/>
<rect x="20.4" y="61.2002" width="10.2" height="10.2" fill="#D6DBDD"/>
<rect x="102" y="61.2002" width="10.2" height="10.2" fill="#D6DBDD"/>
<rect x="20.4" y="142.8" width="10.2" height="10.2" fill="#D6DBDD"/>
<rect x="102" y="142.8" width="10.2" height="10.2" fill="#D6DBDD"/>
<rect x="61.2" y="61.2002" width="10.2" height="10.2" fill="#D6DBDD"/>
<rect x="142.8" y="61.2002" width="10.2" height="10.2" fill="#D6DBDD"/>
<rect x="61.2" y="142.8" width="10.2" height="10.2" fill="#D6DBDD"/>
<rect x="142.8" y="142.8" width="10.2" height="10.2" fill="#D6DBDD"/>
</svg>
