<svg width="125" height="125" viewBox="0 0 125 125" fill="none" xmlns="http://www.w3.org/2000/svg">
<rect width="7.55034" height="7.55034" rx="3.77517" transform="matrix(-1 0 0 1 125 0)" fill="#D7DEE1"/>
<rect width="7.55034" height="7.55034" rx="3.77517" transform="matrix(-1 0 0 1 57.886 0)" fill="#D7DEE1"/>
<rect width="7.55034" height="7.55034" rx="3.77517" transform="matrix(-1 0 0 1 125 67.1143)" fill="#D7DEE1"/>
<rect width="7.55034" height="7.55034" rx="3.77517" transform="matrix(-1 0 0 1 57.886 67.1143)" fill="#D7DEE1"/>
<rect width="7.55034" height="7.55034" rx="3.77517" transform="matrix(-1 0 0 1 91.4431 0)" fill="#D7DEE1"/>
<rect width="7.55034" height="7.55034" rx="3.77517" transform="matrix(-1 0 0 1 24.3289 0)" fill="#D7DEE1"/>
<rect width="7.55034" height="7.55034" rx="3.77517" transform="matrix(-1 0 0 1 91.4431 67.1143)" fill="#D7DEE1"/>
<rect width="7.55034" height="7.55034" rx="3.77517" transform="matrix(-1 0 0 1 24.3289 67.1143)" fill="#D7DEE1"/>
<rect width="7.55034" height="7.55034" rx="3.77517" transform="matrix(-1 0 0 1 108.222 0)" fill="#D7DEE1"/>
<rect width="7.55034" height="7.55034" rx="3.77517" transform="matrix(-1 0 0 1 41.1074 0)" fill="#D7DEE1"/>
<rect width="7.55034" height="7.55034" rx="3.77517" transform="matrix(-1 0 0 1 108.222 67.1143)" fill="#D7DEE1"/>
<rect width="7.55034" height="7.55034" rx="3.77517" transform="matrix(-1 0 0 1 41.1074 67.1143)" fill="#D7DEE1"/>
<rect width="7.55034" height="7.55034" rx="3.77517" transform="matrix(-1 0 0 1 74.6646 0)" fill="#D7DEE1"/>
<rect width="7.55034" height="7.55034" rx="3.77517" transform="matrix(-1 0 0 1 7.55029 0)" fill="#D7DEE1"/>
<rect width="7.55034" height="7.55034" rx="3.77517" transform="matrix(-1 0 0 1 74.6646 67.1143)" fill="#D7DEE1"/>
<rect width="7.55034" height="7.55034" rx="3.77517" transform="matrix(-1 0 0 1 7.55029 67.1143)" fill="#D7DEE1"/>
<rect width="7.55034" height="7.55034" rx="3.77517" transform="matrix(-1 0 0 1 125 16.7783)" fill="#D7DEE1"/>
<rect width="7.55034" height="7.55034" rx="3.77517" transform="matrix(-1 0 0 1 57.886 16.7783)" fill="#D7DEE1"/>
<rect width="7.55034" height="7.55034" rx="3.77517" transform="matrix(-1 0 0 1 125 83.8926)" fill="#D7DEE1"/>
<rect width="7.55034" height="7.55034" rx="3.77517" transform="matrix(-1 0 0 1 57.886 83.8926)" fill="#D7DEE1"/>
<rect width="7.55034" height="7.55034" rx="3.77517" transform="matrix(-1 0 0 1 91.4431 16.7783)" fill="#D7DEE1"/>
<rect width="7.55034" height="7.55034" rx="3.77517" transform="matrix(-1 0 0 1 24.3289 16.7783)" fill="#D7DEE1"/>
<rect width="7.55034" height="7.55034" rx="3.77517" transform="matrix(-1 0 0 1 91.4431 83.8926)" fill="#D7DEE1"/>
<rect width="7.55034" height="7.55034" rx="3.77517" transform="matrix(-1 0 0 1 24.3289 83.8926)" fill="#D7DEE1"/>
<rect width="7.55034" height="7.55034" rx="3.77517" transform="matrix(-1 0 0 1 108.222 16.7783)" fill="#D7DEE1"/>
<rect width="7.55034" height="7.55034" rx="3.77517" transform="matrix(-1 0 0 1 41.1074 16.7783)" fill="#D7DEE1"/>
<rect width="7.55034" height="7.55034" rx="3.77517" transform="matrix(-1 0 0 1 108.222 83.8926)" fill="#D7DEE1"/>
<rect width="7.55034" height="7.55034" rx="3.77517" transform="matrix(-1 0 0 1 41.1074 83.8926)" fill="#D7DEE1"/>
<rect width="7.55034" height="7.55034" rx="3.77517" transform="matrix(-1 0 0 1 74.6646 16.7783)" fill="#D7DEE1"/>
<rect width="7.55034" height="7.55034" rx="3.77517" transform="matrix(-1 0 0 1 7.55029 16.7783)" fill="#D7DEE1"/>
<rect width="7.55034" height="7.55034" rx="3.77517" transform="matrix(-1 0 0 1 74.6646 83.8926)" fill="#D7DEE1"/>
<rect width="7.55034" height="7.55034" rx="3.77517" transform="matrix(-1 0 0 1 7.55029 83.8926)" fill="#D7DEE1"/>
<rect width="7.55034" height="7.55034" rx="3.77517" transform="matrix(-1 0 0 1 125 33.5566)" fill="#D7DEE1"/>
<rect width="7.55034" height="7.55034" rx="3.77517" transform="matrix(-1 0 0 1 57.886 33.5566)" fill="#D7DEE1"/>
<rect width="7.55034" height="7.55034" rx="3.77517" transform="matrix(-1 0 0 1 125 100.671)" fill="#D7DEE1"/>
<rect width="7.55034" height="7.55034" rx="3.77517" transform="matrix(-1 0 0 1 57.886 100.671)" fill="#D7DEE1"/>
<rect width="7.55034" height="7.55034" rx="3.77517" transform="matrix(-1 0 0 1 91.4431 33.5566)" fill="#D7DEE1"/>
<rect width="7.55034" height="7.55034" rx="3.77517" transform="matrix(-1 0 0 1 24.3289 33.5566)" fill="#D7DEE1"/>
<rect width="7.55034" height="7.55034" rx="3.77517" transform="matrix(-1 0 0 1 91.4431 100.671)" fill="#D7DEE1"/>
<rect width="7.55034" height="7.55034" rx="3.77517" transform="matrix(-1 0 0 1 24.3289 100.671)" fill="#D7DEE1"/>
<rect width="7.55034" height="7.55034" rx="3.77517" transform="matrix(-1 0 0 1 108.222 33.5566)" fill="#D7DEE1"/>
<rect width="7.55034" height="7.55034" rx="3.77517" transform="matrix(-1 0 0 1 41.1074 33.5566)" fill="#D7DEE1"/>
<rect width="7.55034" height="7.55034" rx="3.77517" transform="matrix(-1 0 0 1 108.222 100.671)" fill="#D7DEE1"/>
<rect width="7.55034" height="7.55034" rx="3.77517" transform="matrix(-1 0 0 1 41.1074 100.671)" fill="#D7DEE1"/>
<rect width="7.55034" height="7.55034" rx="3.77517" transform="matrix(-1 0 0 1 74.6646 33.5566)" fill="#D7DEE1"/>
<rect width="7.55034" height="7.55034" rx="3.77517" transform="matrix(-1 0 0 1 7.55029 33.5566)" fill="#D7DEE1"/>
<rect width="7.55034" height="7.55034" rx="3.77517" transform="matrix(-1 0 0 1 74.6646 100.671)" fill="#D7DEE1"/>
<rect width="7.55034" height="7.55034" rx="3.77517" transform="matrix(-1 0 0 1 7.55029 100.671)" fill="#D7DEE1"/>
<rect width="7.55034" height="7.55034" rx="3.77517" transform="matrix(-1 0 0 1 125 50.3359)" fill="#D7DEE1"/>
<rect width="7.55034" height="7.55034" rx="3.77517" transform="matrix(-1 0 0 1 57.886 50.3359)" fill="#D7DEE1"/>
<rect width="7.55034" height="7.55034" rx="3.77517" transform="matrix(-1 0 0 1 125 117.449)" fill="#D7DEE1"/>
<rect width="7.55034" height="7.55034" rx="3.77517" transform="matrix(-1 0 0 1 57.886 117.449)" fill="#D7DEE1"/>
<rect width="7.55034" height="7.55034" rx="3.77517" transform="matrix(-1 0 0 1 91.4431 50.3359)" fill="#D7DEE1"/>
<rect width="7.55034" height="7.55034" rx="3.77517" transform="matrix(-1 0 0 1 24.3289 50.3359)" fill="#D7DEE1"/>
<rect width="7.55034" height="7.55034" rx="3.77517" transform="matrix(-1 0 0 1 91.4431 117.449)" fill="#D7DEE1"/>
<rect width="7.55034" height="7.55034" rx="3.77517" transform="matrix(-1 0 0 1 24.3289 117.449)" fill="#D7DEE1"/>
<rect width="7.55034" height="7.55034" rx="3.77517" transform="matrix(-1 0 0 1 108.222 50.3359)" fill="#D7DEE1"/>
<rect width="7.55034" height="7.55034" rx="3.77517" transform="matrix(-1 0 0 1 41.1074 50.3359)" fill="#D7DEE1"/>
<rect width="7.55034" height="7.55034" rx="3.77517" transform="matrix(-1 0 0 1 108.222 117.449)" fill="#D7DEE1"/>
<rect width="7.55034" height="7.55034" rx="3.77517" transform="matrix(-1 0 0 1 41.1074 117.449)" fill="#D7DEE1"/>
<rect width="7.55034" height="7.55034" rx="3.77517" transform="matrix(-1 0 0 1 74.6646 50.3359)" fill="#D7DEE1"/>
<rect width="7.55034" height="7.55034" rx="3.77517" transform="matrix(-1 0 0 1 7.55029 50.3359)" fill="#D7DEE1"/>
<rect width="7.55034" height="7.55034" rx="3.77517" transform="matrix(-1 0 0 1 74.6646 117.449)" fill="#D7DEE1"/>
<rect width="7.55034" height="7.55034" rx="3.77517" transform="matrix(-1 0 0 1 7.55029 117.449)" fill="#D7DEE1"/>
</svg>
