<svg xmlns="http://www.w3.org/2000/svg" height="512" viewBox="0 0 64 64" width="512"><path d="M8 6h4v2H8zm0 4h6v2H8z" data-original="#000000" class="active-path" data-old_color="#000000" fill="#356FBF"/><path d="M57 20H44v-9a1 1 0 00-1-1h-3V7a1 1 0 00-1-1h-7.08l-3.2-3.66a1 1 0 00-.76-.34H5a1 1 0 00-1 1v34a1 1 0 001 1h3v3a1 1 0 001 1h3v3a1 1 0 001 1h19v13a3.009 3.009 0 003 3h22a3.009 3.009 0 003-3V23a3.009 3.009 0 00-3-3zm-17-8h2v8h-2zm-2-4v12h-2v-8.97a1.023 1.023 0 00-.25-.66L33.67 8zm-9-2.3l3.77 4.3H29zM32 44H14v-2h18zm0-4H10v-2h22zm0-17v9h-2V15a1 1 0 00-1-1h-4a1 1 0 00-1 1v17h-1V19a1 1 0 00-1-1h-4a1 1 0 00-1 1v13h-1v-6a1 1 0 00-1-1h-4a1 1 0 00-1 1v6H8v2h24v2H6V4h21v7a1 1 0 001 1h6v8.18A3.01 3.01 0 0032 23zm-4-7v16h-2V16zm-7 4v12h-2V20zm-7 7v5h-2v-5zm44 32a1 1 0 01-1 1H35a1 1 0 01-1-1v-7h24zm0-9H34V26h24zm0-26H34v-1a1 1 0 011-1h22a1 1 0 011 1z" data-original="#000000" class="active-path" data-old_color="#000000" fill="#356FBF"/><path d="M46 53a3 3 0 103 3 3 3 0 00-3-3zm0 4a1 1 0 111-1 1 1 0 01-1 1zm6-19h-6v-6a1 1 0 00-1-1 8 8 0 108 8 1 1 0 00-1-1zm-7 7a6 6 0 01-1-11.917V39a1 1 0 001 1h5.917A6.01 6.01 0 0145 45z" data-original="#000000" class="active-path" data-old_color="#000000" fill="#356FBF"/><path d="M48 28a1 1 0 00-1 1v7a1 1 0 001 1h7a1 1 0 001-1 8.009 8.009 0 00-8-8zm1 7v-4.917A6.017 6.017 0 0153.917 35z" data-original="#000000" class="active-path" data-old_color="#000000" fill="#356FBF"/></svg>