<svg height="512" viewBox="0 0 64 64" width="512" xmlns="http://www.w3.org/2000/svg"><path d="M59 2H5a3.009 3.009 0 00-3 3v54a3.009 3.009 0 003 3h54a3.009 3.009 0 003-3V5a3.009 3.009 0 00-3-3zm1 57a1 1 0 01-1 1H5a1 1 0 01-1-1V12h56zm0-49H4V5a1 1 0 011-1h54a1 1 0 011 1z"/><path d="M25.2 35.4L22.5 39H17a1 1 0 00-.707.293L13.586 42H9v2h5a1 1 0 00.707-.293L17.414 41H23a1 1 0 00.8-.4l2.7-3.6H31v-2h-5a1 1 0 00-.8.4zM22 45h-4a1 1 0 00-1 1v11a1 1 0 001 1h4a1 1 0 001-1V46a1 1 0 00-1-1zm-1 11h-2v-9h2zm-7-8h-4a1 1 0 00-1 1v8a1 1 0 001 1h4a1 1 0 001-1v-8a1 1 0 00-1-1zm-1 8h-2v-6h2zm17-14h-4a1 1 0 00-1 1v14a1 1 0 001 1h4a1 1 0 001-1V43a1 1 0 00-1-1zm-1 14h-2V44h2zM6 6h2v2H6zm4 0h2v2h-2zm4 0h2v2h-2zm13.293 8.293l-4 4 1.414 1.414L27 17.414V33h2V17.414l2.293 2.293 1.414-1.414-4-4a1 1 0 00-1.414 0z"/><path d="M19 27.414V37h2v-9.586l2.293 2.293 1.414-1.414-4-4a1 1 0 00-1.414 0l-4 4 1.414 1.414zM9 40h2v-3.586l2.293 2.293 1.414-1.414-4-4a1 1 0 00-1.414 0l-4 4 1.414 1.414L9 36.414zm38 4a4 4 0 10-4 4 4 4 0 004-4zm-6 0a2 2 0 112 2 2 2 0 01-2-2z"/><path d="M57.24 46.03l-.67-.17.36-.59a1.014 1.014 0 00-.15-1.22l-2.83-2.83a1.014 1.014 0 00-1.22-.15l-.59.36-.17-.67a.982.982 0 00-.94-.75 1 1 0 00-.25-.96l-2.83-2.83a1.012 1.012 0 00-1.22-.15l-.59.36-.17-.67A1 1 0 0045 35h-4a1 1 0 00-.97.76l-.17.67-.59-.36a1.014 1.014 0 00-1.22.15l-2.83 2.83a1 1 0 00-.15 1.22l.36.59-.67.17A1 1 0 0034 42v4a1 1 0 00.76.97l.67.17-.36.59a1 1 0 00.15 1.22l2.83 2.83a1 1 0 001.22.15l.59-.36.17.67a.982.982 0 00.94.75 1 1 0 00.25.96l2.83 2.83a1.014 1.014 0 001.22.15l.59-.36.17.67A1 1 0 0047 58h4a1 1 0 00.97-.76l.17-.67.59.36a1.014 1.014 0 001.22-.15l2.83-2.83a1.014 1.014 0 00.15-1.22l-.36-.59.67-.17A1 1 0 0058 51v-4a1 1 0 00-.76-.97zm-6.28 2.67c.01.1.04.2.04.3a2.006 2.006 0 01-2 2 1.967 1.967 0 01-.24-.03l2.02-2.02a1.138 1.138 0 00.18-.25zm-9.48 1.08a1.007 1.007 0 00-.59-.68.989.989 0 00-.9.07l-1.08.64-1.72-1.72.65-1.08a1.019 1.019 0 00.06-.9 1.007 1.007 0 00-.68-.59l-1.22-.3v-2.44l1.22-.3a1.007 1.007 0 00.68-.59 1.019 1.019 0 00-.06-.9l-.65-1.08 1.72-1.72 1.08.64a.987.987 0 00.9.07 1.007 1.007 0 00.59-.68l.3-1.22h2.44l.3 1.22a1.007 1.007 0 00.59.68.989.989 0 00.9-.07l1.08-.64 1.72 1.72-.65 1.08a1.019 1.019 0 00-.06.9 1.007 1.007 0 00.68.59l1.22.3v2.44l-1.22.3a1.007 1.007 0 00-.68.59 1.019 1.019 0 00.06.9l.65 1.08-1.72 1.72-1.08-.64a.989.989 0 00-.9-.07 1.007 1.007 0 00-.59.68l-.3 1.22h-2.44zm14.52.44l-1.22.3a.984.984 0 00-.68.59 1 1 0 00.06.89l.65 1.08-1.72 1.73-1.09-.65a.967.967 0 00-.89-.06.984.984 0 00-.59.68l-.3 1.22h-2.44l-.3-1.22a.984.984 0 00-.59-.68.967.967 0 00-.89.06l-1.09.65-1.72-1.73.05-.08H45a1 1 0 00.97-.76l.13-.5A3.931 3.931 0 0049 53a4.006 4.006 0 002.95-6.71A.929.929 0 0052 46v-2.16l1.09-.65 1.72 1.73-.65 1.08a1 1 0 00-.06.89.984.984 0 00.68.59l1.22.3zM48 14a10 10 0 1010 10 10.016 10.016 0 00-10-10zm0 18a8 8 0 118-8 8.011 8.011 0 01-8 8z"/><path d="M47 22v1h3a1 1 0 011 1v3a1 1 0 01-1 1h-1v2h-2v-2h-2v-2h4v-1h-3a1 1 0 01-1-1v-3a1 1 0 011-1h1v-2h2v2h2v2z"/></svg>