<svg height="512" viewBox="0 0 64 64" width="512" xmlns="http://www.w3.org/2000/svg"><path d="M63 21.729V14.27l-2.734-.876a15.016 15.016 0 00-.919-2.229l1.312-2.549-5.274-5.274-2.549 1.312a14.979 14.979 0 00-2.229-.919L49.729 1H42.27l-.876 2.734c-.772.248-1.519.556-2.229.919l-2.549-1.312-5.274 5.274 1.312 2.549c-.362.709-.67 1.455-.919 2.229L29 14.271V17H6c-2.757 0-5 2.243-5 5v36c0 2.757 2.243 5 5 5h26c2.757 0 5-2.243 5-5v-3h17c1.654 0 3-1.346 3-3v-2c0-.352-.072-.686-.184-1H58c1.654 0 3-1.346 3-3v-2c0-1.654-1.346-3-3-3h-1.184c.112-.314.184-.648.184-1v-2c0-.352-.072-.686-.184-1H58c1.654 0 3-1.346 3-3v-2a2.994 2.994 0 00-2.109-2.85l1.767-1.767-1.312-2.549c.362-.709.67-1.455.919-2.229zM35 58c0 1.654-1.346 3-3 3H6c-1.654 0-3-1.346-3-3V22c0-1.654 1.346-3 3-3h26c1.654 0 3 1.346 3 3zm20-8v2c0 .551-.448 1-1 1H37v-4h2v2h2v-2h2v2h2v-2h2v2h2v-2h2v2h2v-2h1c.552 0 1 .449 1 1zm4-6v2c0 .551-.448 1-1 1H37v-4h2v2h2v-2h2v2h2v-2h2v2h2v-2h2v2h2v-2h2v2h2v-2h1c.552 0 1 .449 1 1zm-4-6v2c0 .551-.448 1-1 1H37v-4h2v2h2v-2h2v2h2v-2h2v2h2v-2h2v2h2v-2h1c.552 0 1 .449 1 1zm4-4c0 .551-.448 1-1 1H37v-4h2v2h2v-2h2v2h2v-2h2v2h2v-2h2v2h2v-2h2v2h2v-2h1c.552 0 1 .449 1 1zm-.356-12.975l-.146.517a13.01 13.01 0 01-1.152 2.796l-.263.468 1.13 2.195-2 1.999H37v-4.695C38.992 27.139 42.28 29 46 29c6.065 0 11-4.935 11-11S52.065 7 46 7s-11 4.935-11 11l.001.027A4.943 4.943 0 0032 17h-1v-1.271l2.356-.755.146-.517a13.01 13.01 0 011.152-2.796l.263-.468-1.13-2.195 3.212-3.211 2.194 1.129.469-.262c.87-.487 1.811-.875 2.797-1.153l.517-.146L43.729 3h4.541l.754 2.356.517.146c.986.278 1.927.667 2.797 1.153l.469.262 2.194-1.129 3.212 3.211-1.13 2.195.263.468a13.01 13.01 0 011.152 2.796l.146.517 2.356.754v4.541zM37 18c0-4.962 4.037-9 9-9s9 4.038 9 9-4.037 9-9 9-9-4.038-9-9z"/><path d="M46 21c-.552 0-1-.449-1-1h-2c0 1.302.839 2.402 2 2.816V25h2v-2.184A2.996 2.996 0 0049 20c0-1.654-1.346-3-3-3a1.001 1.001 0 010-2c.552 0 1 .449 1 1h2a2.996 2.996 0 00-2-2.816V11h-2v2.184A2.996 2.996 0 0043 16c0 1.654 1.346 3 3 3a1.001 1.001 0 010 2zm-15 0H7c-1.103 0-2 .897-2 2v10c0 1.103.897 2 2 2h24c1.103 0 2-.897 2-2V23c0-1.103-.897-2-2-2zM7 33V23h24l.001 10zm4 4H7c-1.103 0-2 .897-2 2v2c0 1.103.897 2 2 2h4c1.103 0 2-.897 2-2v-2c0-1.103-.897-2-2-2zm-4 4v-2h4l.001 2zm14-4h-4c-1.103 0-2 .897-2 2v2c0 1.103.897 2 2 2h4c1.103 0 2-.897 2-2v-2c0-1.103-.897-2-2-2zm-4 4v-2h4l.001 2zm14-4h-4c-1.103 0-2 .897-2 2v2c0 1.103.897 2 2 2h4c1.103 0 2-.897 2-2v-2c0-1.103-.897-2-2-2zm-4 4v-2h4l.001 2zm-16 4H7c-1.103 0-2 .897-2 2v2c0 1.103.897 2 2 2h4c1.103 0 2-.897 2-2v-2c0-1.103-.897-2-2-2zm-4 4v-2h4l.001 2zm14-4h-4c-1.103 0-2 .897-2 2v2c0 1.103.897 2 2 2h4c1.103 0 2-.897 2-2v-2c0-1.103-.897-2-2-2zm-4 4v-2h4l.001 2zm-6 4H7c-1.103 0-2 .897-2 2v2c0 1.103.897 2 2 2h4c1.103 0 2-.897 2-2v-2c0-1.103-.897-2-2-2zm-4 4v-2h4l.001 2zm14-4h-4c-1.103 0-2 .897-2 2v2c0 1.103.897 2 2 2h4c1.103 0 2-.897 2-2v-2c0-1.103-.897-2-2-2zm-4 4v-2h4l.001 2zm14-12h-4c-1.103 0-2 .897-2 2v10c0 1.103.897 2 2 2h4c1.103 0 2-.897 2-2V47c0-1.103-.897-2-2-2zm-4 12V47h4l.001 10z"/><path d="M19 29h2v2h-2zm8 0h2v2h-2zm-4 0h2v2h-2z"/></svg>