<svg height="512" viewBox="0 0 511.205 511.205" width="512" xmlns="http://www.w3.org/2000/svg"><path d="M7.5 109.351a7.5 7.5 0 007.5-7.5V88.258h443.599v71.054c0 4.142 3.357 7.5 7.5 7.5s7.5-3.358 7.5-7.5V31.605c0-17.371-14.132-31.503-31.503-31.503H31.502C14.132.102 0 14.234 0 31.605v70.246a7.5 7.5 0 007.5 7.5zm24.002-94.249h410.594c9.1 0 16.503 7.403 16.503 16.503v41.653H15V31.605c0-9.1 7.403-16.503 16.502-16.503zm133.791 443.599H31.502c-9.1 0-16.502-7.403-16.502-16.502V133.814a7.5 7.5 0 00-15 0v308.385c0 17.371 14.132 31.502 31.502 31.502h133.791a7.5 7.5 0 000-15zm310.673-276.89H223.031c-19.431 0-35.238 15.808-35.238 35.239v97.444a7.5 7.5 0 0015 0v-50.333h293.412v211.703c0 11.159-9.079 20.238-20.238 20.238H223.031c-11.159 0-20.238-9.079-20.238-20.238V346.457a7.5 7.5 0 00-15 0v129.407c0 19.431 15.808 35.238 35.238 35.238h252.935c19.431 0 35.238-15.808 35.238-35.238V217.05c.001-19.431-15.807-35.239-35.238-35.239zm-273.173 67.35V217.05c0-11.16 9.079-20.239 20.238-20.239h252.935c11.159 0 20.238 9.079 20.238 20.239v32.111z"/><path d="M45.96 51.302h5.632a7.5 7.5 0 000-15H45.96a7.5 7.5 0 000 15zm52.166 0h5.632a7.5 7.5 0 000-15h-5.632a7.5 7.5 0 000 15zm52.166 0h5.632a7.5 7.5 0 000-15h-5.632a7.5 7.5 0 000 15zm287.543 313.867h-31.581c-4.143 0-7.5 3.358-7.5 7.5s3.357 7.5 7.5 7.5h31.581c12.605 0 22.86-10.255 22.86-22.86v-31.841c0-12.605-10.255-22.86-22.86-22.86H261.163c-12.605 0-22.861 10.255-22.861 22.86v31.841c0 12.605 10.255 22.86 22.861 22.86h113.129c4.143 0 7.5-3.358 7.5-7.5s-3.357-7.5-7.5-7.5H261.163c-4.334 0-7.861-3.526-7.861-7.86v-31.841c0-4.334 3.527-7.86 7.861-7.86h176.673c4.334 0 7.86 3.526 7.86 7.86v31.841c0 4.334-3.527 7.86-7.861 7.86zM78.855 150.051h318.012c4.143 0 7.5-3.358 7.5-7.5s-3.357-7.5-7.5-7.5H78.855c-9.162 0-16.616 7.454-16.616 16.616v93.53c0 9.162 7.454 16.616 16.616 16.616h67.567a7.5 7.5 0 000-15H78.855a1.618 1.618 0 01-1.616-1.616v-93.53c0-.891.725-1.616 1.616-1.616zm67.314 143.557h-76.43a7.5 7.5 0 000 15h76.43a7.5 7.5 0 000-15zm0 56.223h-76.43a7.5 7.5 0 000 15h76.43a7.5 7.5 0 000-15zm99.633 95.102h207.394c4.143 0 7.5-3.358 7.5-7.5s-3.357-7.5-7.5-7.5H245.802a7.5 7.5 0 000 15z"/></svg>