<svg width="69" height="69" fill="none" xmlns="http://www.w3.org/2000/svg"><g clip-path="url(#clip0)" fill="#000"><path d="M41.4 54.05H12.65c-.86.009-1.646.49-2.045 1.252L8.034 60.96a2.3 2.3 0 001.998 3.44H41.4a2.3 2.3 0 002.3-2.3v-5.75a2.3 2.3 0 00-2.3-2.3zm-31.32 8.003l2.57-5.703H41.4v5.703H10.08zM46 56.35v5.75a2.3 2.3 0 002.3 2.3h10.667a2.3 2.3 0 002.047-3.348l-2.668-5.843a2.3 2.3 0 00-1.996-1.16H48.3a2.3 2.3 0 00-2.3 2.3zm12.974 5.75H48.3v-5.75l8.002-.095 2.672 5.845z"/><path d="M1.15 26.45a1.15 1.15 0 00-.955 1.79 11.484 11.484 0 007.855 4.97v7.04a5.76 5.76 0 004.6 5.635v3.565h-1.486a5.681 5.681 0 00-5.299 3.53L.25 64.268A3.45 3.45 0 003.45 69h62.1a3.45 3.45 0 003.166-4.816l-5.538-11.118a5.722 5.722 0 00-5.342-3.616H56.35v-3.565a5.76 5.76 0 004.6-5.635v-7.04a11.478 11.478 0 007.856-4.97 1.15 1.15 0 00-.956-1.79h-6.9v-9.2h6.9a1.15 1.15 0 00.956-1.79 11.478 11.478 0 00-7.856-4.97V5.75A5.757 5.757 0 0055.2 0H13.8a5.757 5.757 0 00-5.75 5.75v4.74a11.478 11.478 0 00-7.855 4.97 1.15 1.15 0 00.955 1.79h6.9v9.2h-6.9zm59.927 27.554l5.54 11.12A1.15 1.15 0 0165.55 66.7H3.45a1.16 1.16 0 01-1.106-1.495l5.615-11.29a3.432 3.432 0 013.206-2.165h46.671a3.474 3.474 0 013.24 2.254zM14.95 49.45V46h2.3a1.15 1.15 0 002.3 0h2.3a1.15 1.15 0 002.3 0h2.3a1.15 1.15 0 002.3 0h2.3a1.15 1.15 0 002.3 0h2.3a1.15 1.15 0 002.3 0h2.3a1.15 1.15 0 002.3 0h2.3a1.15 1.15 0 002.3 0h2.3a1.15 1.15 0 002.3 0h2.3v3.45h-39.1zM55.2 43.7H13.8a3.45 3.45 0 01-3.45-3.45v-6.93c.777-.04 1.548-.159 2.3-.354v2.684a2.3 2.3 0 002.3 2.3h39.1a2.3 2.3 0 002.3-2.3v-2.684c.753.196 1.524.314 2.3.354v6.93a3.45 3.45 0 01-3.45 3.45zM18.933 28.75h31.135a11.541 11.541 0 003.982 3.345v3.555h-39.1v-3.555a11.54 11.54 0 003.983-3.345zM54.05 11.605a11.543 11.543 0 00-3.982 3.345H18.933a11.541 11.541 0 00-3.983-3.345V6.9h39.1v4.705zm-5.338 5.645a11.426 11.426 0 000 9.2H20.289a11.426 11.426 0 000-9.2h28.423zm7.275 4.6l2.663-4.439v8.878l-2.663-4.439zm2.109-6.9a1.15 1.15 0 00-.987.558l-3.45 5.75a1.15 1.15 0 000 1.184l3.45 5.75c.208.347.583.558.987.558h7.235a9.2 9.2 0 110-13.8h-7.235zM13.8 2.3h41.4a3.45 3.45 0 013.45 3.45v4.63c-.776.04-1.547.158-2.3.354V6.9a2.3 2.3 0 00-2.3-2.3h-39.1a2.3 2.3 0 00-2.3 2.3v3.834a11.488 11.488 0 00-2.3-.354V5.75A3.45 3.45 0 0113.8 2.3zm-.433 11.09A9.2 9.2 0 113.67 28.75h7.235c.404 0 .778-.211.986-.558l3.45-5.75a1.15 1.15 0 000-1.184l-3.45-5.75a1.15 1.15 0 00-.986-.558H3.67a9.184 9.184 0 019.697-1.56zm-.353 8.46l-2.664 4.439v-8.878l2.664 4.439z"/><path d="M25.3 23h5.75a1.15 1.15 0 000-2.3H25.3a1.15 1.15 0 000 2.3zm12.65 0h5.75a1.15 1.15 0 100-2.3h-5.75a1.15 1.15 0 000 2.3z"/></g><defs><clipPath id="clip0"><path fill="#fff" d="M0 0h69v69H0z"/></clipPath></defs></svg>