<svg height="512" viewBox="0 0 64 64" width="512" xmlns="http://www.w3.org/2000/svg"><path d="M32 45c-4.963 0-9 4.038-9 9s4.037 9 9 9 9-4.038 9-9-4.037-9-9-9zm-3.823 14.857C28.676 58.196 30.222 57 32 57s3.324 1.196 3.823 2.857a6.963 6.963 0 01-7.646 0zM30 53c0-1.103.897-2 2-2s2 .897 2 2-.897 2-2 2-2-.897-2-2zm7.403 5.445a6.032 6.032 0 00-2.522-2.684A3.974 3.974 0 0036 53c0-2.206-1.794-4-4-4s-4 1.794-4 4c0 1.072.429 2.043 1.119 2.762a6.032 6.032 0 00-2.522 2.684A6.974 6.974 0 0125 54c0-3.86 3.141-7 7-7s7 3.14 7 7c0 1.686-.6 3.235-1.597 4.445zM32 1c-4.963 0-9 4.038-9 9 0 1.165.23 2.275.634 3.298A4.93 4.93 0 0022 13c-1.654 0-3 1.347-3 3v2.472a5.257 5.257 0 01-2.539 4.484 7.232 7.232 0 00-3.138 3.913l-.023.07L1 25.914V43h31c1.654 0 3-1.346 3-3 0-.395-.081-.77-.22-1.115A2.997 2.997 0 0037 36a2.98 2.98 0 00-.78-2c.48-.532.78-1.229.78-2s-.301-1.468-.78-2c.48-.532.78-1.229.78-2 0-1.653-1.345-3-2.999-3H29c-1.103 0-2-.897-2-2v-5c0-.192-.036-.374-.057-.56A8.952 8.952 0 0032 19c4.963 0 9-4.038 9-9s-4.037-9-9-9zM13 41H3V28.087l10 .833zm16-14h5.001A1 1 0 0134 29h-7v2h7a1.001 1.001 0 010 2h-7v2h7a1.001 1.001 0 010 2h-7v2h5a1 1 0 010 2H15V28.162l.221-.66a5.225 5.225 0 012.27-2.83 7.267 7.267 0 003.51-6.199v-2.472c0-.551.449-1 1-1 1.654 0 3 1.346 3 3v5A4.002 4.002 0 0029 27zm3-10c-3.859 0-7-3.14-7-7s3.141-7 7-7 7 3.14 7 7-3.141 7-7 7zm22 6c-4.963 0-9 4.038-9 9s4.037 9 9 9 9-4.038 9-9-4.037-9-9-9zm0 16c-3.859 0-7-3.14-7-7s3.141-7 7-7 7 3.14 7 7-3.141 7-7 7z"/><path d="M57 29v4h-2v-6h-2v6h-2v-2h-2v4h10v-6zM31 9h2v2h-2zm4 0h2v2h-2zm-8 0h2v2h-2zm26.152 9.531l1.336 2.129 1.492-7.464-1.961-.393-.536 2.683c-2.584-3.42-5.83-5.979-10.06-7.958l-.847 1.812c4.646 2.173 8.007 5.094 10.576 9.191zM7.528 20.577l1.813.847c2.171-4.644 5.092-8.005 9.19-10.576l2.128-1.335-7.463-1.493-.392 1.96 2.683.537c-3.422 2.585-5.981 5.831-7.959 10.06zm3.32 24.892L9.512 43.34 8.02 50.804l1.961.393.536-2.683c2.584 3.42 5.83 5.979 10.06 7.958l.848-1.812c-4.647-2.173-8.008-5.094-10.577-9.191zm45.624-2.046l-1.813-.847c-2.171 4.644-5.092 8.005-9.19 10.576l-2.128 1.335 7.463 1.493.393-1.961-2.683-.537c3.421-2.584 5.98-5.83 7.958-10.059z"/></svg>