<svg width="76" height="76" fill="none" xmlns="http://www.w3.org/2000/svg"><path d="M18.183 22.463a1.039 1.039 0 001.039-1.039v-3.908a1.039 1.039 0 10-2.078 0v3.908a1.04 1.04 0 001.039 1.04zm17.659 25.474a1.04 1.04 0 00-1.01-.782H8.651a1.038 1.038 0 00-1.01.782 14.547 14.547 0 1028.197 0h.004zm-14.099 16.04a12.483 12.483 0 01-12.469-12.47c0-.762.07-1.524.211-2.274h24.517a12.463 12.463 0 01-12.259 14.743z" fill="#000"/><path d="M72.14 67.54h-3.896v-2.524a1.039 1.039 0 00-1.039-1.04h-.74v-45.01h4.266a1.039 1.039 0 001.04-1.04v-3.562a1.04 1.04 0 00-1.04-1.039h-4.267V9.019a1.04 1.04 0 00-1.039-1.039h-3.562a1.04 1.04 0 00-1.04 1.04v4.305h-4.488v-4.88a2.815 2.815 0 00-.15-5.625h-12.47a2.814 2.814 0 00-.146 5.626v4.879h-1.635a1.04 1.04 0 00-1.039 1.04v3.562a1.04 1.04 0 001.04 1.039h1.634V45.79a6.38 6.38 0 0010.892 4.513 6.317 6.317 0 001.874-4.513V18.966h4.489v45.01h-.744a1.04 1.04 0 00-1.039 1.04v2.523H30.152a18.1 18.1 0 00-.245-32.192V12.469a2.815 2.815 0 00-.146-5.626H13.73a2.815 2.815 0 00-.15 5.626v22.878a18.1 18.1 0 00-.246 32.192H3.86a1.04 1.04 0 00-1.039 1.04v3.562a1.04 1.04 0 001.04 1.039h68.28a1.04 1.04 0 001.04-1.04v-3.562a1.04 1.04 0 00-1.04-1.039zm-9.238-57.482h1.484v3.266h-1.484v-3.266zM42.973 5.641a.743.743 0 01.742-.742h12.47a.742.742 0 010 1.484h-12.47a.743.743 0 01-.742-.742zm2.672 2.82h8.61v4.864h-8.608l-.002-4.864zm-2.672 6.942h26.719v1.484H42.973v-1.484zm11.282 5.492H51.73a1.04 1.04 0 000 2.078h2.526v1.93H51.73a1.04 1.04 0 000 2.078h2.526v1.93H51.73a1.04 1.04 0 000 2.078h2.526v1.93H51.73a1.04 1.04 0 100 2.078h2.526v1.93H51.73a1.04 1.04 0 100 2.078h2.526v6.785a4.313 4.313 0 01-4.305 4.305 4.31 4.31 0 01-4.304-4.305V18.966h8.609l-.002 1.93zm8.645-1.93h1.484v45.012H62.9V18.966zm-1.782 47.09h5.047v1.484h-5.047v-1.484zM12.988 9.663a.743.743 0 01.742-.742h16.03a.742.742 0 110 1.485H13.73a.742.742 0 01-.742-.743zM5.712 51.508a16.075 16.075 0 019.34-14.565 1.04 1.04 0 00.605-.944V12.484H27.83v2.36h-2.521a1.04 1.04 0 100 2.078h2.521v1.93h-2.521a1.039 1.039 0 100 2.078h2.521v1.93h-2.521a1.039 1.039 0 100 2.078h2.521v1.93h-2.521a1.039 1.039 0 100 2.077h2.521v1.93h-2.521a1.039 1.039 0 100 2.078h2.521V36a1.038 1.038 0 00.606.944A16.031 16.031 0 115.712 51.508zm65.39 19.594H4.898v-1.485h66.204v1.485z" fill="#000"/><path d="M19.081 53.315a2.82 2.82 0 100 5.64 2.82 2.82 0 000-5.64zm0 3.562a.742.742 0 110-1.485.742.742 0 010 1.485zm9.789-7.051a2.82 2.82 0 100 5.641 2.82 2.82 0 000-5.64zm0 3.563a.743.743 0 110-1.486.743.743 0 010 1.486zM18.042 40.012a2.82 2.82 0 105.641 0 2.82 2.82 0 00-5.64 0zm2.82-.742a.743.743 0 110 1.485.743.743 0 010-1.486z" fill="#000"/></svg>