<svg width="25" height="24" fill="none" xmlns="http://www.w3.org/2000/svg"><g clip-path="url(#clip0)"><path d="M23.902 10.851a1.7 1.7 0 00.433-1.752 1.7 1.7 0 00-1.38-1.164l-5.773-.839a.754.754 0 01-.568-.413l-2.58-5.23A1.7 1.7 0 0012.5.5a1.7 1.7 0 00-1.533.953l-2.581 5.23a.755.755 0 01-.569.413l-5.772.84a1.698 1.698 0 00-1.38 1.163 1.7 1.7 0 00.432 1.752l4.177 4.071c.178.174.26.424.218.669l-.986 5.749c-.11.646.15 1.286.68 1.672.53.386 1.22.436 1.8.13l5.163-2.715a.755.755 0 01.702 0l5.163 2.715a1.704 1.704 0 001.8-.13 1.698 1.698 0 00.68-1.672l-.986-5.749a.755.755 0 01.218-.668l4.177-4.072zm-5.334 4.901l.986 5.75a.741.741 0 01-.3.738.744.744 0 01-.796.057l-5.162-2.715a1.717 1.717 0 00-1.592.001l-5.162 2.714a.744.744 0 01-.795-.057.742.742 0 01-.3-.739l.986-5.749a1.71 1.71 0 00-.492-1.513l-4.177-4.071a.74.74 0 01-.191-.774.74.74 0 01.609-.514l5.772-.839a1.707 1.707 0 001.287-.935l2.582-5.23a.74.74 0 01.676-.421c.295 0 .548.157.678.42l2.581 5.23c.249.506.73.855 1.287.936l5.772.839a.74.74 0 01.61.514c.09.28.02.568-.191.774l-4.177 4.07a1.709 1.709 0 00-.491 1.514z" fill="#BDC7D0"/></g><defs><clipPath id="clip0"><path fill="#fff" transform="translate(.58)" d="M0 0h23.84v23.84H0z"/></clipPath></defs></svg>