<?xml version="1.0"?>
<svg xmlns="http://www.w3.org/2000/svg" height="512px" viewBox="0 0 64 64" width="512px" class=""><g><g id="files-mobile-graph-screen-data"><path d="m8 6h4v2h-4z" data-original="#000000" class="active-path" data-old_color="#000000" fill="#356FBF"/><path d="m8 10h6v2h-6z" data-original="#000000" class="active-path" data-old_color="#000000" fill="#356FBF"/><path d="m57 20h-13v-9a1 1 0 0 0 -1-1h-3v-3a1 1 0 0 0 -1-1h-7.08l-3.2-3.66a1 1 0 0 0 -.76-.34h-22.96a1 1 0 0 0 -1 1v34a1 1 0 0 0 1 1h3v3a1 1 0 0 0 1 1h3v3a1 1 0 0 0 1 1h19v13a3.009 3.009 0 0 0 3 3h22a3.009 3.009 0 0 0 3-3v-36a3.009 3.009 0 0 0 -3-3zm-17-8h2v8h-2zm-2-4v12h-2v-8.97a1.023 1.023 0 0 0 -.25-.66l-2.08-2.37zm-9-2.3 3.77 4.3h-3.77zm3 38.3h-18v-2h18zm0-4h-22v-2h22zm0-17v9h-2v-17a1 1 0 0 0 -1-1h-4a1 1 0 0 0 -1 1v17h-1v-13a1 1 0 0 0 -1-1h-4a1 1 0 0 0 -1 1v13h-1v-6a1 1 0 0 0 -1-1h-4a1 1 0 0 0 -1 1v6h-2v2h24v2h-26v-32h21v7a1 1 0 0 0 1 1h6v8.18a3.01 3.01 0 0 0 -2 2.82zm-4-7v16h-2v-16zm-7 4v12h-2v-12zm-7 7v5h-2v-5zm44 32a1 1 0 0 1 -1 1h-22a1 1 0 0 1 -1-1v-7h24zm0-9h-24v-24h24zm0-26h-24v-1a1 1 0 0 1 1-1h22a1 1 0 0 1 1 1z" data-original="#000000" class="active-path" data-old_color="#000000" fill="#356FBF"/><path d="m46 53a3 3 0 1 0 3 3 3 3 0 0 0 -3-3zm0 4a1 1 0 1 1 1-1 1 1 0 0 1 -1 1z" data-original="#000000" class="active-path" data-old_color="#000000" fill="#356FBF"/><path d="m52 38h-6v-6a1 1 0 0 0 -1-1 8 8 0 1 0 8 8 1 1 0 0 0 -1-1zm-7 7a6 6 0 0 1 -1-11.917v5.917a1 1 0 0 0 1 1h5.917a6.01 6.01 0 0 1 -5.917 5z" data-original="#000000" class="active-path" data-old_color="#000000" fill="#356FBF"/><path d="m48 28a1 1 0 0 0 -1 1v7a1 1 0 0 0 1 1h7a1 1 0 0 0 1-1 8.009 8.009 0 0 0 -8-8zm1 7v-4.917a6.017 6.017 0 0 1 4.917 4.917z" data-original="#000000" class="active-path" data-old_color="#000000" fill="#356FBF"/></g></g> </svg>
